<?xml version="1.0" encoding="UTF-8"?>
<svg id="_图层_1" data-name="图层 1" xmlns="http://www.w3.org/2000/svg" viewBox="0 0 528.79 253.07">
  <defs>
    <style>
      .cls-1 {
        fill: #c279d3;
        stroke: #fef3ff;
        stroke-miterlimit: 10;
        stroke-width: 3px;
      }
    </style>
  </defs>
  <path class="cls-1" d="M19,113.69c-4.46,0-8.47-1.31-11.62-3.79-3.79-2.99-5.88-7.43-5.88-12.5,0-1.28.13-3.09,1.66-11.12,3.65-19.24,6.69-40.02,9.02-61.77.82-7.49,2.59-12.66,5.58-16.3,3.65-4.45,7.79-6.7,12.31-6.7s8.95,1.85,12.28,5.35c2.23,2.35,4.89,6.53,4.89,13.13,0,4.68-.55,10.04-1.64,15.94-.2,1.07-.43,2.26-.69,3.56,3.49-1.6,7.1-2.41,10.78-2.41,5.82,0,10.98,2.16,14.94,6.25,3.84,3.98,6.02,10.73,7.27,22.57v.12c.37,3.79.81,6.82,1.32,8.98.52,2.2,1.09,4.13,1.7,5.74.4,1.06.98,2.05,1.76,3.03l.1.13c2.47,3.21,3.72,6.64,3.72,10.21,0,4.21-1.89,8.17-5.33,11.16-3.08,2.68-6.86,4.1-10.92,4.1-4.58,0-11.21-1.65-16.8-9.51-3.49-4.91-5.6-11.34-6.27-19.13-5.47,7.59-9.47,13.71-11.9,18.21-2.06,4.67-3.59,7.47-5.1,9.34-2.83,3.5-6.8,5.42-11.18,5.42Z"/>
  <path class="cls-1" d="M26.66,76.43c6.06-11.35,11.29-19.08,15.68-23.18,4.4-4.11,8.84-6.16,13.33-6.16,3.1,0,5.68,1.07,7.75,3.2,2.06,2.14,3.57,7.69,4.52,16.67.4,4.27.91,7.72,1.53,10.35.62,2.63,1.31,4.95,2.08,6.98s1.86,3.93,3.28,5.72c1.1,1.42,1.64,2.79,1.64,4.11s-.63,2.52-1.89,3.61c-1.26,1.09-2.71,1.64-4.35,1.64-3.25,0-6.13-1.77-8.65-5.31-2.52-3.54-4.01-8.43-4.49-14.67-.58-7.63-1.21-12.5-1.89-14.62-.68-2.12-1.8-3.18-3.37-3.18-2.12,0-6.23,4.23-12.34,12.67-6.11,8.45-10.52,15.21-13.22,20.28-1.68,3.83-2.98,6.31-3.89,7.45-.91,1.13-2.04,1.7-3.39,1.7-2.23,0-4.03-.55-5.42-1.64-1.39-1.1-2.08-2.65-2.08-4.65,0-.99.49-4.07,1.48-9.25,3.72-19.6,6.77-40.46,9.14-62.57.58-5.33,1.71-9.01,3.37-11.03,1.66-2.03,3.18-3.04,4.57-3.04,1.93,0,3.61.75,5.04,2.24,1.42,1.5,2.13,3.58,2.13,6.24,0,4.09-.49,8.8-1.48,14.12-.99,5.33-2.83,13.83-5.53,25.51-1.64,7.04-2.83,12.65-3.56,16.81Z"/>
  <path class="cls-1" d="M91.7,114.51c-8.33,0-17.23-5.5-17.23-20.95,0-6.9.92-14.93,2.8-24.54.35-1.89.66-3.68.95-5.36l.31.03-.3-.05c1.29-7.32,1.55-9.42,1.6-9.94.05-4.54,1.19-8.56,3.39-11.95,2.25-3.47,5.55-5.83,9.36-6.8-.27-.26-.54-.54-.8-.82-4.31-4.64-5.22-9.24-5.22-12.28,0-5.35,1.92-10.04,5.57-13.57,2.47-2.39,6.94-5.25,14.18-5.25,5.01,0,9.45,1.7,12.83,4.92,3.52,3.36,5.38,7.63,5.38,12.36,0,3.91-1.23,9.59-7.09,14.49-2.63,2.2-5.2,3.69-7.78,4.51,3.1,2.97,4.8,6.78,4.8,10.83,0,1.88-.29,4.61-2.41,11.76l-.33,1.21c-1.83,6.41-2.93,11.59-3.27,15.4-.37,4.13-.56,7.45-.56,9.89,0,.87.12,2.91.94,6.91l.04.18.03.18c.2,1.21.3,2.29.3,3.3,0,5.72-4.29,9.57-5.71,10.84-3.42,3.07-7.5,4.69-11.79,4.69Z"/>
  <path class="cls-1" d="M88.09,65.31v.05c1.17-6.64,1.75-10.44,1.75-11.39,0-2.7.59-4.96,1.78-6.79,1.19-1.82,2.84-2.74,4.95-2.74,2.48,0,4.42.58,5.8,1.75,1.39,1.17,2.08,2.48,2.08,3.94s-.68,4.47-2.03,9.03l-.33,1.2c-2.01,7.04-3.21,12.79-3.61,17.24-.4,4.45-.6,8.05-.6,10.78,0,2.23.38,5.2,1.15,8.92.11.66.17,1.2.17,1.64,0,.84-.79,1.97-2.38,3.39-1.59,1.42-3.29,2.13-5.12,2.13-4.82,0-7.23-3.65-7.23-10.95,0-6.2.88-13.76,2.63-22.66.36-1.97.69-3.83.99-5.58ZM114.53,20.31c0,2.59-1.17,4.86-3.5,6.82-2.34,1.95-4.36,2.93-6.08,2.93-2.19,0-4.13-.91-5.83-2.74-1.7-1.82-2.55-3.65-2.55-5.47,0-2.63.84-4.75,2.52-6.38,1.68-1.62,4.09-2.44,7.23-2.44,2.45,0,4.42.72,5.94,2.16,1.51,1.44,2.27,3.15,2.27,5.12Z"/>
  <path class="cls-1" d="M123.12,112.21c-11.13,0-18.32-6.91-18.32-17.61,0-1.72.21-4.66,1.8-13.48,1.31-7.27,1.98-16.4,1.98-27.14,0-3.96,1.45-7.86,4.31-11.59,4.34-5.66,9.3-6.85,12.7-6.85,5.89,0,9.61,2.33,11.7,4.28,1.05.99,1.88,2.1,2.53,3.31,4.44-3.16,9.66-5.24,15.71-5.24,8.09,0,22.08,3.75,24.83,28.89.5,4.61.97,7.91,1.37,10.25,7.19.12,12.38,5.58,12.38,13.06,0,4.87-2.37,9.41-7.05,13.48-4.21,3.67-9.62,5.61-15.66,5.61-7.98,0-14.56-4.04-18.05-11.09l-7.07-14.3c-6.22,9.59-8.35,14.3-9.07,16.4-.79,2.96-2.23,5.53-4.3,7.64-3.55,3.61-7.28,4.37-9.8,4.37ZM149.45,83.67c-.18-1.23-.35-2.52-.5-3.88-.34.5-.7,1.03-1.07,1.59-.53.79-1.03,1.55-1.5,2.29h3.07Z"/>
  <path class="cls-1" d="M162.38,93.67c-1.75-3.28-3.03-9.42-3.83-18.39-.8-9.34-2.59-14.01-5.37-14.01-2.63,0-7.17,4.86-13.63,14.59-6.46,9.73-10.44,16.91-11.93,21.54-.33,1.39-.94,2.54-1.83,3.45-.9.91-1.78,1.37-2.66,1.37-5.55,0-8.32-2.54-8.32-7.61,0-1.72.55-5.62,1.64-11.72,1.42-7.88,2.13-17.52,2.13-28.91,0-1.71.75-3.55,2.24-5.5,1.5-1.95,3.08-2.93,4.76-2.93,2.12,0,3.74.53,4.87,1.59,1.13,1.06,1.7,3.87,1.7,8.43,0,3.47-1.04,10.18-3.12,20.15,7.92-18.54,16.75-27.81,26.5-27.81,8.47,0,13.43,6.66,14.89,19.98,1.46,13.58,3.14,20.36,5.04,20.36.84,0,1.81-.18,2.9-.55,1.31-.44,2.35-.66,3.12-.66,1.75,0,2.63,1.02,2.63,3.07,0,1.86-1.2,3.84-3.61,5.94-2.41,2.1-5.44,3.15-9.09,3.15-4.23,0-7.26-1.84-9.09-5.53h.05Z"/>
  <path class="cls-1" d="M207.81,114.29c-8.25,0-15.46-3.22-20.85-9.31-5.15-5.82-7.77-12.96-7.77-21.22,0-11.48,3.86-22.77,11.46-33.57,10.43-14.82,22.92-17.93,31.55-17.93,9.18,0,17.07,3.63,22.83,10.5,5.4,6.45,8.14,14.16,8.14,22.93,0,3.11-.31,6.21-.93,9.23v.33l-.39,1.4c-2.98,10.42-8.72,19.31-17.04,26.44-8.67,7.43-17.76,11.19-27,11.19ZM219.92,64.57c-.99,1.03-2.62,3.14-4.67,7.3-1.49,3.02-2.34,5.94-2.57,8.85.83-.69,1.75-1.56,2.74-2.65,3.22-3.54,4.73-7.14,4.73-11.33,0-.83-.06-1.58-.18-2.21l-.04.04Z"/>
  <path class="cls-1" d="M242.25,73.91c-2.45,8.54-7.09,15.74-13.93,21.6-6.84,5.86-13.68,8.79-20.5,8.79-5.4,0-9.85-1.98-13.36-5.94s-5.26-8.82-5.26-14.59c0-9.42,3.21-18.69,9.64-27.81,6.42-9.12,14.21-13.69,23.38-13.69,6.24,0,11.3,2.31,15.17,6.93,3.87,4.62,5.8,10.12,5.8,16.51,0,2.77-.31,5.49-.93,8.16v.05ZM213.78,56.61c-2.55,2.26-5.05,5.88-7.5,10.84-2.45,4.96-3.67,9.95-3.67,14.95,0,3.03.56,5.53,1.67,7.5s2.58,2.96,4.41,2.96c4.53,0,9.23-2.68,14.12-8.05,4.89-5.37,7.34-11.39,7.34-18.07,0-3.76-.79-6.85-2.38-9.28-1.59-2.43-3.8-3.64-6.65-3.64s-5.13.93-7.28,2.79h-.06Z"/>
  <path class="cls-1" d="M261.85,114.07c-7.92,0-17.17-5.33-17.17-20.35,0-11.62.65-21.76,1.92-30.14.87-5.65,1.31-11.26,1.31-16.67,0-4,1.42-7.61,4.1-10.45,2.79-2.96,6.73-4.59,11.11-4.59,6.12,0,12.98,2.77,16.26,9.97,5.04-4.38,10.15-6.46,15.55-6.46,6.47,0,12.2,2.83,16.13,7.98,1.09,1.42,1.99,3.11,2.73,5.1,1.7-2.47,3.33-4.43,4.95-5.96,6.22-5.88,12.45-7.12,16.59-7.12,7.82,0,14.1,3.76,17.67,10.59,2.5,4.77,4.07,11.58,4.93,21.42.62,7.42,1.37,11.21,1.89,13.1.09.32.17.56.24.72,4.8,2.6,7.65,7.25,7.65,12.57,0,3.33-1.22,8.24-7.06,12.69-3.85,2.94-8.03,4.43-12.41,4.43-7.34,0-13.52-3.74-17.41-10.53-1.62-2.83-2.86-6.53-3.8-11.44-2.72,5.26-5.21,9.18-7.54,11.87-5.44,6.31-11.3,7.63-15.27,7.63-4.56,0-8.89-1.73-12.88-5.14-3.49-2.99-5.45-7.68-6.36-16.02-2.95,5.04-5.35,9.71-7.16,13.95-1.58,7.86-7.7,12.85-15.97,12.85Z"/>
  <path class="cls-1" d="M268.14,98.43c-.44,3.76-2.54,5.64-6.3,5.64-4.78,0-7.17-3.45-7.17-10.35,0-11.17.6-20.71,1.81-28.63.95-6.17,1.42-12.23,1.42-18.18,0-1.42.46-2.62,1.37-3.59.91-.97,2.19-1.45,3.83-1.45,5.47,0,8.21,3.32,8.21,9.96,0,2.15-.97,7.65-2.9,16.48-1.17,5.26-1.75,9.07-1.75,11.44,10.44-22.92,19.85-34.38,28.25-34.38,3.39,0,6.12,1.35,8.18,4.05,2.06,2.7,3.13,8.69,3.2,17.96.04,8.47.47,12.7,1.31,12.7.66,0,2.94-4.11,6.84-12.32,4.34-9.09,8.06-15.09,11.14-18.01,3.08-2.92,6.32-4.38,9.72-4.38,4.05,0,6.99,1.74,8.81,5.23,1.83,3.49,3.1,9.37,3.83,17.66.55,6.57,1.29,11.53,2.22,14.89.93,3.36,2.53,5.58,4.79,6.68,1.82.88,2.74,2.19,2.74,3.94,0,1.57-1.04,3.15-3.12,4.74-2.08,1.59-4.2,2.38-6.35,2.38-3.72,0-6.63-1.83-8.73-5.5-2.1-3.67-3.51-11.03-4.24-22.09-.4-5.33-.83-8.86-1.29-10.59-.46-1.73-1.14-2.6-2.05-2.6-.8,0-1.97,1.31-3.5,3.91-1.53,2.61-4.18,7.8-7.94,15.57-3.32,7.01-6.18,11.9-8.57,14.67-2.39,2.77-4.95,4.16-7.69,4.16-2.12,0-4.24-.91-6.38-2.74-2.13-1.82-3.29-8.45-3.48-19.87-.18-10.18-.84-15.27-1.97-15.27-1.53,0-5.22,4.53-11.06,13.58-5.84,9.05-10.24,17.15-13.19,24.31Z"/>
  <path class="cls-1" d="M383.11,114.29c-8.25,0-15.46-3.22-20.85-9.31-5.15-5.82-7.77-12.96-7.77-21.22,0-11.48,3.86-22.77,11.46-33.57,10.43-14.82,22.92-17.93,31.55-17.93,9.18,0,17.07,3.63,22.83,10.5,5.4,6.45,8.14,14.16,8.14,22.93,0,3.11-.31,6.21-.93,9.23v.33l-.39,1.4c-2.98,10.42-8.72,19.31-17.04,26.44-8.67,7.43-17.76,11.19-27,11.19ZM395.22,64.57c-.99,1.03-2.62,3.14-4.67,7.3-1.49,3.02-2.34,5.94-2.57,8.85.83-.69,1.75-1.56,2.74-2.65,3.22-3.54,4.73-7.14,4.73-11.33,0-.83-.06-1.58-.18-2.21l-.04.04Z"/>
  <path class="cls-1" d="M417.54,73.91c-2.45,8.54-7.09,15.74-13.93,21.6-6.84,5.86-13.68,8.79-20.5,8.79-5.4,0-9.85-1.98-13.36-5.94s-5.26-8.82-5.26-14.59c0-9.42,3.21-18.69,9.64-27.81,6.42-9.12,14.21-13.69,23.38-13.69,6.24,0,11.3,2.31,15.17,6.93,3.87,4.62,5.8,10.12,5.8,16.51,0,2.77-.31,5.49-.93,8.16v.05ZM389.07,56.61c-2.55,2.26-5.05,5.88-7.5,10.84-2.45,4.96-3.67,9.95-3.67,14.95,0,3.03.56,5.53,1.67,7.5s2.58,2.96,4.41,2.96c4.53,0,9.23-2.68,14.12-8.05,4.89-5.37,7.34-11.39,7.34-18.07,0-3.76-.79-6.85-2.38-9.28-1.59-2.43-3.8-3.64-6.65-3.64s-5.13.93-7.28,2.79h-.06Z"/>
  <path class="cls-1" d="M437.91,114.73c-6.73,0-12.24-4.05-14.75-10.83-1.51-4.07-2.21-9.64-2.21-17.51,0-2.78.08-6.52.22-11.11.15-4.52.6-10.05,1.32-16.45.17-1.48.29-2.64.35-3.47v-.1c.42-4.45.89-7.37,1.55-9.46,1.05-3.33,3.2-6.26,6.41-8.7,3.26-2.49,7.12-3.8,11.15-3.8,6.12,0,9.85,2.72,11.91,4.99.47.52.91,1.07,1.3,1.63,5.65-4.69,11.56-7.06,17.61-7.06s11.52,1.91,15.67,5.52c4.56,3.96,6.97,9.09,6.97,14.83,0,3.68-.93,7-2.77,9.89-2.65,4.15-6.94,6.52-11.78,6.52-3.35,0-6.53-.91-9.4-2.67-1.33,1.41-3.18,3.57-5.66,6.85-5.4,7.14-8.56,14.96-9.66,23.89-.73,5.59-2.75,9.84-5.99,12.7-2.25,1.98-6.19,4.33-12.25,4.33Z"/>
  <path class="cls-1" d="M442.67,74.51l.93-1.75c4.42-8.87,9.17-16.07,14.26-21.6,5.09-5.53,10.06-8.29,14.92-8.29,3.72,0,6.76,1.02,9.12,3.07,2.35,2.04,3.53,4.47,3.53,7.28,0,1.75-.4,3.26-1.2,4.52-.8,1.26-1.92,1.89-3.34,1.89-2.26,0-4.33-.93-6.19-2.79-1.31-1.2-2.35-1.81-3.12-1.81-2.74,0-7.32,4.25-13.74,12.76-6.42,8.5-10.29,18.07-11.61,28.69-.4,3.07-1.3,5.21-2.68,6.43-1.39,1.22-3.27,1.83-5.64,1.83-2.52,0-4.31-1.43-5.37-4.3s-1.59-7.55-1.59-14.04c0-2.66.07-6.26.22-10.78.15-4.27.57-9.49,1.26-15.66.18-1.61.31-2.86.38-3.78.33-3.58.7-6.03,1.12-7.36.42-1.33,1.4-2.58,2.93-3.75,1.53-1.17,3.23-1.75,5.09-1.75,1.97,0,3.47.57,4.49,1.7,1.02,1.13,1.53,2.37,1.53,3.72,0,1.72-.82,5.27-2.46,10.68-.58,1.86-1.08,4.09-1.48,6.68l-1.37,8.43Z"/>
  <path class="cls-1" d="M494.46,114.51c-8.33,0-17.23-5.5-17.23-20.95,0-6.9.92-14.93,2.8-24.54.35-1.89.66-3.68.95-5.36l.31.03-.3-.05c1.29-7.32,1.55-9.42,1.6-9.94.05-4.54,1.19-8.56,3.39-11.95,2.25-3.47,5.55-5.83,9.36-6.8-.27-.26-.54-.54-.8-.82-4.31-4.64-5.22-9.24-5.22-12.28,0-5.35,1.92-10.04,5.57-13.57,2.47-2.39,6.94-5.25,14.18-5.25,5.01,0,9.45,1.7,12.83,4.92,3.52,3.36,5.38,7.63,5.38,12.36,0,3.91-1.23,9.59-7.09,14.49-2.63,2.2-5.2,3.69-7.78,4.51,3.1,2.97,4.8,6.78,4.8,10.83,0,1.88-.29,4.61-2.41,11.76l-.33,1.21c-1.83,6.41-2.93,11.59-3.27,15.4-.37,4.13-.56,7.45-.56,9.89,0,.87.12,2.91.94,6.91l.04.18.03.18c.2,1.21.3,2.29.3,3.3,0,5.72-4.29,9.57-5.71,10.84-3.42,3.07-7.5,4.69-11.79,4.69Z"/>
  <path class="cls-1" d="M490.84,65.31v.05c1.17-6.64,1.75-10.44,1.75-11.39,0-2.7.59-4.96,1.78-6.79,1.19-1.82,2.84-2.74,4.95-2.74,2.48,0,4.42.58,5.8,1.75,1.39,1.17,2.08,2.48,2.08,3.94s-.68,4.47-2.03,9.03l-.33,1.2c-2.01,7.04-3.21,12.79-3.61,17.24-.4,4.45-.6,8.05-.6,10.78,0,2.23.38,5.2,1.15,8.92.11.66.17,1.2.17,1.64,0,.84-.79,1.97-2.38,3.39-1.59,1.42-3.29,2.13-5.12,2.13-4.82,0-7.23-3.65-7.23-10.95,0-6.2.88-13.76,2.63-22.66.36-1.97.69-3.83.99-5.58ZM517.29,20.31c0,2.59-1.17,4.86-3.5,6.82-2.34,1.95-4.36,2.93-6.08,2.93-2.19,0-4.13-.91-5.83-2.74-1.7-1.82-2.55-3.65-2.55-5.47,0-2.63.84-4.75,2.52-6.38,1.68-1.62,4.09-2.44,7.23-2.44,2.45,0,4.42.72,5.94,2.16,1.51,1.44,2.27,3.15,2.27,5.12Z"/>
  <path class="cls-1" d="M66.13,249.93c-14.69,0-19.91-9.25-19.91-17.17,0-4.58,1.92-8.82,5.41-11.94,2.86-2.56,6.27-4.05,9.93-4.35-1.97-1.5-3.53-2.98-4.73-4.49-3.47-4.35-5.3-9.45-5.3-14.75,0-6.86,2.66-16.81,15.32-25.26,8.88-5.93,17.58-8.94,25.83-8.94,11.7,0,19.25,7.08,19.25,18.05,0,4.46-2.07,8.59-5.84,11.62-3.26,2.63-6.49,3.91-9.86,3.91-2.2,0-4.1-.65-5.72-1.4-.47.1-.98.24-1.52.43.31.15.64.31.98.47,7.85,3.72,12.89,7.13,15.91,10.75,3.49,4.19,5.33,9.16,5.33,14.4,0,6.48-2.84,15.61-16.39,22.3-8.56,4.23-18.22,6.37-28.71,6.37Z"/>
  <path class="cls-1" d="M88.47,222.3c-.15-1.97-3.28-4.38-9.42-7.23-7.52-3.61-12.32-6.72-14.4-9.33-2.08-2.61-3.12-5.45-3.12-8.51,0-6.46,3.62-12.11,10.87-16.94,7.24-4.84,14-7.25,20.28-7.25s9.25,2.68,9.25,8.05c0,1.42-.7,2.7-2.11,3.83-1.41,1.13-2.6,1.7-3.59,1.7-.4,0-1.11-.25-2.13-.77-1.02-.51-1.81-.77-2.35-.77-3.25,0-6.83,1.09-10.73,3.28-3.91,2.19-5.86,4.74-5.86,7.66,0,1.42.69,2.8,2.08,4.13,1.39,1.33,4.22,3,8.49,5.01,6.31,2.99,10.47,5.69,12.48,8.1,2.01,2.41,3.01,5.07,3.01,7.99,0,5.33-3.6,9.77-10.81,13.33-7.21,3.56-15.3,5.34-24.28,5.34-6.61,0-9.91-2.39-9.91-7.17,0-1.75.69-3.25,2.08-4.49,1.39-1.24,2.94-1.86,4.65-1.86.69,0,1.77.26,3.23.77,1.46.55,2.81.82,4.05.82,3.43,0,7.03-.55,10.78-1.64s6.24-2.44,7.45-4.05Z"/>
  <path class="cls-1" d="M114.8,248.23c-4.46,0-8.47-1.31-11.62-3.79-3.79-2.99-5.88-7.43-5.88-12.5,0-1.28.13-3.09,1.65-11.12,3.65-19.23,6.69-40.02,9.02-61.77.82-7.49,2.59-12.66,5.58-16.31,3.64-4.44,7.78-6.7,12.3-6.7s8.95,1.85,12.28,5.35c2.23,2.35,4.89,6.53,4.89,13.13,0,4.68-.55,10.04-1.64,15.94-.2,1.07-.43,2.26-.69,3.56,3.49-1.6,7.1-2.41,10.78-2.41,5.82,0,10.98,2.16,14.94,6.25,3.84,3.98,6.02,10.73,7.27,22.57v.12c.37,3.79.81,6.82,1.32,8.98.52,2.2,1.09,4.13,1.7,5.74.4,1.06.98,2.05,1.76,3.03l.1.13c2.47,3.21,3.72,6.64,3.72,10.21,0,4.21-1.89,8.17-5.33,11.16-3.08,2.68-6.86,4.1-10.92,4.1-4.58,0-11.21-1.65-16.8-9.51-3.49-4.91-5.6-11.34-6.27-19.13-5.46,7.58-9.46,13.7-11.9,18.21-2.06,4.67-3.59,7.47-5.1,9.34-2.82,3.49-6.79,5.42-11.18,5.42Z"/>
  <path class="cls-1" d="M122.47,210.97c6.06-11.35,11.29-19.08,15.68-23.18,4.4-4.11,8.84-6.16,13.33-6.16,3.1,0,5.68,1.07,7.75,3.2,2.06,2.14,3.57,7.69,4.52,16.67.4,4.27.91,7.72,1.53,10.35.62,2.63,1.31,4.95,2.08,6.98s1.86,3.93,3.28,5.72c1.1,1.42,1.64,2.79,1.64,4.11s-.63,2.52-1.89,3.61c-1.26,1.09-2.71,1.64-4.35,1.64-3.25,0-6.13-1.77-8.65-5.31-2.52-3.54-4.01-8.43-4.49-14.67-.58-7.63-1.21-12.5-1.89-14.62-.68-2.12-1.8-3.18-3.37-3.18-2.12,0-6.23,4.23-12.34,12.67-6.11,8.45-10.52,15.21-13.22,20.28-1.68,3.83-2.97,6.31-3.89,7.45s-2.04,1.7-3.39,1.7c-2.23,0-4.03-.55-5.42-1.64-1.39-1.1-2.08-2.65-2.08-4.65,0-.99.49-4.07,1.48-9.25,3.72-19.6,6.77-40.46,9.14-62.57.58-5.33,1.71-9.01,3.37-11.03,1.66-2.03,3.18-3.04,4.57-3.04,1.93,0,3.61.75,5.04,2.24,1.42,1.5,2.13,3.58,2.13,6.24,0,4.09-.49,8.8-1.48,14.12-.99,5.33-2.83,13.83-5.53,25.51-1.64,7.04-2.83,12.65-3.56,16.81Z"/>
  <path class="cls-1" d="M187.5,249.05c-8.33,0-17.23-5.5-17.23-20.95,0-6.9.92-14.93,2.8-24.54.35-1.89.66-3.68.95-5.36l.31.03-.3-.05c1.29-7.32,1.55-9.42,1.6-9.94.05-4.54,1.19-8.56,3.39-11.95,2.25-3.47,5.55-5.83,9.36-6.8-.27-.26-.54-.54-.8-.82-4.31-4.64-5.22-9.24-5.22-12.28,0-5.35,1.92-10.04,5.57-13.57,2.47-2.39,6.94-5.25,14.18-5.25,5.01,0,9.45,1.7,12.83,4.92,3.52,3.36,5.38,7.63,5.38,12.36,0,3.91-1.23,9.59-7.09,14.49-2.63,2.2-5.2,3.69-7.78,4.51,3.1,2.97,4.8,6.78,4.8,10.83,0,1.88-.29,4.61-2.41,11.76l-.33,1.21c-1.83,6.41-2.93,11.59-3.27,15.4-.37,4.13-.56,7.45-.56,9.89,0,.87.12,2.91.94,6.91l.04.18.03.18c.2,1.21.3,2.29.3,3.3,0,5.72-4.29,9.57-5.71,10.84-3.42,3.07-7.5,4.69-11.79,4.69Z"/>
  <path class="cls-1" d="M183.89,199.85v.05c1.17-6.64,1.75-10.44,1.75-11.39,0-2.7.59-4.96,1.78-6.79,1.19-1.82,2.84-2.74,4.95-2.74,2.48,0,4.42.58,5.8,1.75,1.39,1.17,2.08,2.48,2.08,3.94s-.68,4.47-2.03,9.03l-.33,1.2c-2.01,7.04-3.21,12.79-3.61,17.24-.4,4.45-.6,8.05-.6,10.78,0,2.23.38,5.2,1.15,8.92.11.66.17,1.2.17,1.64,0,.84-.79,1.97-2.38,3.39-1.59,1.42-3.29,2.13-5.12,2.13-4.82,0-7.23-3.65-7.23-10.95,0-6.2.88-13.76,2.63-22.66.36-1.97.69-3.83.99-5.58ZM210.33,154.85c0,2.59-1.17,4.86-3.5,6.82-2.34,1.95-4.36,2.93-6.08,2.93-2.19,0-4.13-.91-5.83-2.74-1.7-1.82-2.55-3.65-2.55-5.47,0-2.63.84-4.75,2.52-6.38,1.68-1.62,4.09-2.44,7.23-2.44,2.45,0,4.42.72,5.94,2.16,1.51,1.44,2.27,3.15,2.27,5.12Z"/>
  <path class="cls-1" d="M207.98,251.57c-4.17,0-7.93-1.13-11.15-3.36-4.11-2.84-6.5-7-6.72-11.71l-.19-4.03,2.66-3.03c1.94-2.22,4.47-4.9,7.52-7.99,8.14-8.27,14.41-14.69,19.25-19.67-17.25-1.51-19.23-11.93-19.23-16.6,0-7.89,5.23-15.86,16.9-15.86,1.63,0,3.27.32,4.9.94,1.5.58,3.26.87,5.23.87,5.14,0,11.48-.58,18.86-1.73,2.67-.46,4.9-.68,6.82-.68,4.31,0,8.08,1.16,11.19,3.44,3.96,2.91,6.14,7.16,6.14,11.98,0,4.16-2.21,8.02-5.58,12.45-.93,1.57-3.12,4.49-12.26,14.22,18.85.87,20.36,13.41,20.36,17.34,0,5.54-2.26,10.73-6.54,15.01l-4.75,4.75-6.2-2.61c-1.64-.69-3.15-1.41-4.47-2.13-.89-.44-2.99-1.14-7.31-1.14-1.34,0-4.8.2-12.88,1.56-7.06,1.19-8.84,2.61-8.92,2.67-3.86,3.45-8.58,5.29-13.62,5.29Z"/>
  <path class="cls-1" d="M250.19,220.77c8.32,0,12.48,2.46,12.48,7.39,0,2.88-1.21,5.53-3.61,7.94-1.39-.58-2.61-1.17-3.67-1.75-2.96-1.53-6.95-2.3-11.99-2.3-2.96,0-7.8.57-14.54,1.7-6.73,1.13-11.36,2.81-13.88,5.04-2.08,1.86-4.42,2.79-7.01,2.79-2.12,0-3.94-.53-5.47-1.59-1.53-1.06-2.33-2.37-2.41-3.94,1.83-2.08,4.2-4.6,7.12-7.55,23.65-24.01,35.8-36.77,36.46-38.27-1.46,0-3.32.15-5.58.44-6.35.88-11.13,1.31-14.34,1.31-9.09,0-13.63-2.26-13.63-6.79,0-3.9,2.3-5.86,6.9-5.86.4,0,.84.09,1.31.27,2.66,1.02,5.6,1.53,8.81,1.53,5.69,0,12.52-.62,20.47-1.86,2.12-.36,3.85-.55,5.2-.55,2.15,0,3.91.5,5.28,1.51,1.37,1,2.05,2.31,2.05,3.91,0,1.24-1.35,3.6-4.05,7.06l.05-.05c-1.28,2.45-11.21,13.18-29.78,32.19-.8.8-1.3,1.33-1.48,1.59.07-.04.35-.11.82-.22.47-.07,1.04-.2,1.7-.38l2.13-.49c.77-.15,1.48-.31,2.13-.49,1.53-.36,2.39-.55,2.57-.55,6.75-1.35,11.92-2.03,15.49-2.03h.44Z"/>
  <path class="cls-1" d="M315.83,248.67c-3.06,0-10.18-1-14.7-9.64-.05.04-.1.08-.15.12-6.43,5.23-13.27,7.88-20.36,7.88-5.61,0-10.89-2.52-15.7-7.48-4.72-4.87-7.12-11.8-7.12-20.59,0-5.21,1.17-12.44,3.58-22.08l.03-.11c2.19-8.35,2.52-12.32,2.52-13.94v-2.26l.97-2.04c3.12-6.55,8.9-10.3,15.87-10.3,4.93,0,9.37,1.93,12.51,5.43,3.67,4.09,4.44,8.2,4.44,10.92,0,3.91-1.08,8.56-3.39,14.62-.29.79-.6,1.72-.93,2.79,1.43-2.47,2.46-4.93,3.09-7.37,2.01-7.63,3.77-12.33,5.72-15.28,3.15-4.76,8.04-7.39,13.76-7.39,9.39,0,15.69,6.57,15.69,16.35,0,1.84-.4,3.77-1.44,6.88-1.8,5.41-2.72,11.69-2.72,18.68,0,5.63.64,8.17.97,9.11,3.49,2.48,5.44,6.13,5.44,10.22,0,2.8-.97,8.11-7.48,12.19-3.47,2.18-7.05,3.28-10.63,3.28Z"/>
  <path class="cls-1" d="M306.85,216.17c-3.5,6.39-7.56,11.46-12.18,15.22-4.62,3.76-9.3,5.64-14.04,5.64-2.81,0-5.65-1.48-8.51-4.43-2.87-2.96-4.3-7.5-4.3-13.63,0-4.34,1.09-10.89,3.29-19.65,1.9-7.23,2.85-12.72,2.85-16.48,1.46-3.07,3.74-4.6,6.84-4.6,2.12,0,3.8.7,5.06,2.11,1.26,1.41,1.89,2.82,1.89,4.24,0,2.59-.91,6.28-2.74,11.06-1.06,2.85-2.2,6.87-3.42,12.07-1.22,5.2-1.83,8.53-1.83,9.99,0,4.85,1,7.28,3.01,7.28,3.17,0,7.46-3.05,12.87-9.14,5.4-6.09,8.92-12.34,10.57-18.72,1.64-6.24,3.1-10.33,4.38-12.26,1.28-1.93,3.08-2.9,5.42-2.9,3.79,0,5.69,2.12,5.69,6.35,0,.62-.31,1.86-.93,3.72-2.15,6.46-3.23,13.74-3.23,21.84,0,9.49,1.61,15.16,4.82,17.03,1.06.62,1.59,1.39,1.59,2.3,0,1.31-.93,2.55-2.79,3.72-1.86,1.17-3.63,1.75-5.31,1.75-2.88,0-5.1-2.03-6.65-6.1-1.55-4.07-2.33-9.53-2.33-16.4Z"/>
  <path class="cls-1" d="M342.1,249.49c-6.13,0-9.99-2.62-12.16-4.81-3.87-3.94-4.69-8-4.69-10.72,0-1.55.19-3.92,1.57-10.66,1.66-8.2,3.1-19.4,4.27-33.27l.02-.18c1.17-11.46,2.22-20.58,3.11-27.08,1.29-9.39,2.18-12.7,2.82-14.53,1.31-3.76,3.45-6.86,6.37-9.23,3.24-2.63,7.04-4.02,11.01-4.02,4.84,0,9.08,2.17,11.95,6.12,2.2,3.03,3.36,6.74,3.36,10.72,0,1.51,0,4.28-4.26,26.95,8.88-7.89,15.51-11.33,21.63-11.33,10.11,0,15.04,6.31,15.72,13.03h8.51l-10.67,10.75c-1.62,2.98-4.09,5.48-7.28,7.33l-.09.09-1.25.69c-1.87,1.03-3.36,1.92-4.43,2.63-2.23,1.5-4.55,3.17-6.86,4.93-.34.27-.67.52-.98.76.11.11.22.23.33.35,4.87,5.1,7.6,7.49,9.04,8.61.78.6,1.22.77,1.35.81l2.36-.05c3.52,0,6.77,1.32,9.17,3.72,1.71,1.71,3.73,4.73,3.73,9.46,0,4.13-1.86,8.19-5.52,12.07-3.82,4.04-9.49,6.09-16.85,6.09-4.78,0-9.46-1.61-13.91-4.79-1.79-1.28-4.69-3.66-10.12-9.84-.53,3.82-2.12,7.22-4.68,9.94-3.36,3.57-7.7,5.45-12.57,5.45Z"/>
  <path class="cls-1" d="M387.27,190.49h.05l-.11.11c-2.12,1.17-3.83,2.19-5.15,3.07-2.45,1.64-4.91,3.41-7.39,5.31-2.85,2.19-4.98,4.03-6.4,5.53-1.21,1.24-1.81,2.15-1.81,2.74,0,.66,2.13,3.22,6.41,7.69,4.27,4.47,7.65,7.67,10.15,9.61,2.5,1.94,4.97,2.9,7.42,2.9l2.41-.05c.88,0,1.58.27,2.11.79.53.53.79,1.32.79,2.38,0,1.5-.93,3.23-2.79,5.2s-5.06,2.96-9.58,2.96c-2.67,0-5.37-.98-8.1-2.93s-6.93-6.36-12.59-13.22c-4.53-5.51-6.99-8.27-7.39-8.27-.26,0-1.02.66-2.3,1.97-1.28,1.31-2.12,2.32-2.52,3.01v.05c-.62,3.03-.93,6.99-.93,11.88,0,2.45-.72,4.43-2.16,5.97-1.44,1.53-3.2,2.3-5.28,2.3s-3.83-.61-5.04-1.83c-1.2-1.22-1.81-2.45-1.81-3.7,0-1.31.46-4.2,1.37-8.65,1.75-8.65,3.23-20.13,4.43-34.43,1.17-11.42,2.19-20.34,3.07-26.74s1.66-10.6,2.35-12.59c.69-1.99,1.77-3.58,3.23-4.76,1.46-1.19,3.03-1.78,4.71-1.78s2.89.67,3.86,2c.97,1.33,1.45,2.95,1.45,4.85,0,2.37-1.53,11.64-4.6,27.81l-1.31,7.17h.05c-1.61,10.55-2.43,16.64-2.46,18.29l16.81-15.22c8.58-8.28,14.87-12.43,18.89-12.43s5.8,1.55,5.8,4.65c0,3.87-1.88,6.66-5.64,8.38Z"/>
  <path class="cls-1" d="M450.06,248.67c-3.06,0-10.18-1-14.7-9.64-.05.04-.1.08-.15.12-6.43,5.23-13.27,7.88-20.36,7.88-5.61,0-10.89-2.52-15.7-7.48-4.72-4.87-7.12-11.8-7.12-20.59,0-5.21,1.17-12.44,3.58-22.08l.03-.11c2.19-8.35,2.52-12.32,2.52-13.94v-2.26l.97-2.04c3.12-6.55,8.9-10.3,15.87-10.3,4.93,0,9.37,1.93,12.51,5.43,3.67,4.09,4.44,8.2,4.44,10.92,0,3.91-1.08,8.56-3.39,14.62-.29.79-.6,1.72-.93,2.79,1.43-2.47,2.46-4.93,3.09-7.37,2.01-7.63,3.77-12.33,5.72-15.28,3.15-4.76,8.04-7.39,13.76-7.39,9.39,0,15.69,6.57,15.69,16.35,0,1.84-.4,3.77-1.44,6.88-1.8,5.41-2.72,11.69-2.72,18.68,0,5.63.64,8.17.97,9.11,3.49,2.48,5.44,6.13,5.44,10.22,0,2.8-.97,8.11-7.48,12.19-3.47,2.18-7.05,3.28-10.63,3.28Z"/>
  <path class="cls-1" d="M441.08,216.17c-3.5,6.39-7.56,11.46-12.18,15.22-4.62,3.76-9.3,5.64-14.04,5.64-2.81,0-5.65-1.48-8.51-4.43-2.87-2.96-4.3-7.5-4.3-13.63,0-4.34,1.09-10.89,3.29-19.65,1.9-7.23,2.85-12.72,2.85-16.48,1.46-3.07,3.74-4.6,6.84-4.6,2.12,0,3.8.7,5.06,2.11,1.26,1.41,1.89,2.82,1.89,4.24,0,2.59-.91,6.28-2.74,11.06-1.06,2.85-2.2,6.87-3.42,12.07-1.22,5.2-1.83,8.53-1.83,9.99,0,4.85,1,7.28,3.01,7.28,3.17,0,7.46-3.05,12.87-9.14,5.4-6.09,8.92-12.34,10.57-18.72,1.64-6.24,3.1-10.33,4.38-12.26,1.28-1.93,3.08-2.9,5.42-2.9,3.79,0,5.69,2.12,5.69,6.35,0,.62-.31,1.86-.93,3.72-2.15,6.46-3.23,13.74-3.23,21.84,0,9.49,1.61,15.16,4.82,17.03,1.06.62,1.59,1.39,1.59,2.3,0,1.31-.93,2.55-2.79,3.72-1.86,1.17-3.63,1.75-5.31,1.75-2.88,0-5.1-2.03-6.65-6.1-1.55-4.07-2.33-9.53-2.33-16.4Z"/>
</svg>