<?xml version="1.0" encoding="UTF-8"?>
<svg id="_图层_1" xmlns="http://www.w3.org/2000/svg" version="1.1" viewBox="0 0 528.8 253.1">
  <!-- Generator: Adobe Illustrator 29.1.0, SVG Export Plug-In . SVG Version: 2.1.0 Build 142)  -->
  <defs>
    <style>
      .st0 {
        fill: #fef3ff;
      }

      .st1 {
        fill: #c279d3;
        stroke: #9b3db2;
        stroke-miterlimit: 10;
        stroke-width: 3px;
      }
    </style>
  </defs>
  <path class="st1" d="M19,113.7c-4.5,0-8.5-1.3-11.6-3.8-3.8-3-5.9-7.4-5.9-12.5s.1-3.1,1.7-11.1c3.7-19.2,6.7-40,9-61.8.8-7.5,2.6-12.7,5.6-16.3,3.6-4.4,7.8-6.7,12.3-6.7s9,1.8,12.3,5.3c2.2,2.3,4.9,6.5,4.9,13.1s-.5,10-1.6,15.9c-.2,1.1-.4,2.3-.7,3.6,3.5-1.6,7.1-2.4,10.8-2.4,5.8,0,11,2.2,14.9,6.2,3.8,4,6,10.7,7.3,22.6h0c.4,3.9.8,6.9,1.3,9.1.5,2.2,1.1,4.1,1.7,5.7.4,1.1,1,2.1,1.8,3h0c2.5,3.3,3.7,6.8,3.7,10.3s-1.9,8.2-5.3,11.2c-3.1,2.7-6.9,4.1-10.9,4.1s-11.2-1.7-16.8-9.5c-3.5-4.9-5.6-11.3-6.3-19.1-5.5,7.6-9.5,13.7-11.9,18.2-2.1,4.7-3.6,7.5-5.1,9.3-2.8,3.5-6.8,5.4-11.2,5.4h0Z"/>
  <path class="st0" d="M26.7,76.4c6.1-11.3,11.3-19.1,15.7-23.2,4.4-4.1,8.8-6.2,13.3-6.2s5.7,1.1,7.8,3.2c2.1,2.1,3.6,7.7,4.5,16.7.4,4.3.9,7.7,1.5,10.3.6,2.6,1.3,4.9,2.1,7s1.9,3.9,3.3,5.7c1.1,1.4,1.6,2.8,1.6,4.1s-.6,2.5-1.9,3.6c-1.3,1.1-2.7,1.6-4.3,1.6-3.2,0-6.1-1.8-8.7-5.3-2.5-3.5-4-8.4-4.5-14.7-.6-7.6-1.2-12.5-1.9-14.6-.7-2.1-1.8-3.2-3.4-3.2s-6.2,4.2-12.3,12.7c-6.1,8.4-10.5,15.2-13.2,20.3-1.7,3.8-3,6.3-3.9,7.4-.9,1.1-2,1.7-3.4,1.7-2.2,0-4-.6-5.4-1.6-1.4-1.1-2.1-2.7-2.1-4.7s.5-4.1,1.5-9.2c3.7-19.6,6.8-40.5,9.1-62.6.6-5.3,1.7-9,3.4-11,1.7-2,3.2-3,4.6-3s3.6.8,5,2.2c1.4,1.5,2.1,3.6,2.1,6.2,0,4.1-.5,8.8-1.5,14.1-1,5.3-2.8,13.8-5.5,25.5-1.6,7-2.8,12.7-3.6,16.8h0Z"/>
  <path class="st1" d="M91.7,114.5c-8.3,0-17.2-5.5-17.2-21s.9-14.9,2.8-24.5c.3-1.9.7-3.7.9-5.4h.3s-.3,0-.3,0c1.3-7.3,1.6-9.4,1.6-9.9,0-4.5,1.2-8.6,3.4-12,2.2-3.5,5.6-5.8,9.4-6.8-.3-.3-.5-.5-.8-.8-4.3-4.6-5.2-9.2-5.2-12.3,0-5.4,1.9-10,5.6-13.6,2.5-2.4,6.9-5.2,14.2-5.2s9.4,1.7,12.8,4.9c3.5,3.4,5.4,7.6,5.4,12.4s-1.2,9.6-7.1,14.5c-2.6,2.2-5.2,3.7-7.8,4.5,3.1,3,4.8,6.8,4.8,10.8s-.3,4.6-2.4,11.8l-.3,1.2c-1.8,6.4-2.9,11.6-3.3,15.4-.4,4.1-.6,7.4-.6,9.9s.1,2.9.9,6.9v.2s0,.2,0,.2c.2,1.2.3,2.3.3,3.3,0,5.7-4.3,9.6-5.7,10.8-3.4,3.1-7.5,4.7-11.8,4.7h0Z"/>
  <path class="st0" d="M88.1,65.3h0c1.2-6.6,1.8-10.4,1.8-11.3,0-2.7.6-5,1.8-6.8,1.2-1.8,2.8-2.7,4.9-2.7s4.4.6,5.8,1.8c1.4,1.2,2.1,2.5,2.1,3.9s-.7,4.5-2,9l-.3,1.2c-2,7-3.2,12.8-3.6,17.2-.4,4.4-.6,8.1-.6,10.8s.4,5.2,1.2,8.9c.1.7.2,1.2.2,1.6,0,.8-.8,2-2.4,3.4s-3.3,2.1-5.1,2.1c-4.8,0-7.2-3.7-7.2-10.9s.9-13.8,2.6-22.7c.4-2,.7-3.8,1-5.6h0ZM114.5,20.3c0,2.6-1.2,4.9-3.5,6.8-2.3,2-4.4,2.9-6.1,2.9s-4.1-.9-5.8-2.7c-1.7-1.8-2.6-3.6-2.6-5.5,0-2.6.8-4.8,2.5-6.4,1.7-1.6,4.1-2.4,7.2-2.4s4.4.7,5.9,2.2c1.5,1.4,2.3,3.1,2.3,5.1Z"/>
  <path class="st1" d="M123.1,112.2c-11.1,0-18.3-6.9-18.3-17.6s.2-4.7,1.8-13.5c1.3-7.3,2-16.4,2-27.1s1.4-7.9,4.3-11.6c4.3-5.7,9.3-6.8,12.7-6.8,5.9,0,9.6,2.3,11.7,4.3,1.1,1,1.9,2.1,2.5,3.3,4.4-3.2,9.7-5.2,15.7-5.2s22.1,3.8,24.8,28.9c.5,4.6,1,7.9,1.4,10.2,7.2.1,12.4,5.6,12.4,13.1s-2.4,9.4-7.1,13.5c-4.2,3.7-9.6,5.6-15.7,5.6s-14.6-4-18.1-11.1l-7.1-14.3c-6.2,9.6-8.4,14.3-9.1,16.4-.8,3-2.2,5.5-4.3,7.6-3.6,3.6-7.3,4.4-9.8,4.4h0ZM149.4,83.7c-.2-1.2-.4-2.5-.5-3.9-.3.5-.7,1-1.1,1.6-.5.8-1,1.6-1.5,2.3h3.1Z"/>
  <path class="st0" d="M162.4,93.7c-1.8-3.3-3-9.4-3.8-18.4-.8-9.3-2.6-14-5.4-14s-7.2,4.9-13.6,14.6c-6.5,9.7-10.4,16.9-11.9,21.5-.3,1.4-.9,2.5-1.8,3.4-.9.9-1.8,1.4-2.7,1.4-5.6,0-8.3-2.5-8.3-7.6s.6-5.6,1.6-11.7c1.4-7.9,2.1-17.5,2.1-28.9s.8-3.5,2.2-5.5c1.5-2,3.1-2.9,4.8-2.9s3.7.5,4.9,1.6,1.7,3.9,1.7,8.4-1,10.2-3.1,20.2c7.9-18.5,16.8-27.8,26.5-27.8s13.4,6.7,14.9,20c1.5,13.6,3.1,20.4,5,20.4s1.8-.2,2.9-.6c1.3-.4,2.4-.7,3.1-.7,1.8,0,2.6,1,2.6,3.1s-1.2,3.8-3.6,5.9c-2.4,2.1-5.4,3.2-9.1,3.2s-7.3-1.8-9.1-5.5h0Z"/>
  <path class="st1" d="M207.8,114.3c-8.2,0-15.5-3.2-20.9-9.3-5.1-5.8-7.8-13-7.8-21.2s3.9-22.8,11.5-33.6c10.4-14.8,22.9-17.9,31.6-17.9s17.1,3.6,22.8,10.5c5.4,6.5,8.1,14.2,8.1,22.9s-.3,6.2-.9,9.2v.3l-.4,1.4c-3,10.4-8.7,19.3-17,26.4-8.7,7.4-17.8,11.2-27,11.2h0ZM219.9,64.6c-1,1-2.6,3.1-4.7,7.3-1.5,3-2.3,5.9-2.6,8.8.8-.7,1.8-1.6,2.7-2.7,3.2-3.5,4.7-7.1,4.7-11.3s0-1.6-.2-2.2h0s0,0,0,0Z"/>
  <path class="st0" d="M242.2,73.9c-2.4,8.5-7.1,15.7-13.9,21.6s-13.7,8.8-20.5,8.8-9.9-2-13.4-5.9-5.3-8.8-5.3-14.6c0-9.4,3.2-18.7,9.6-27.8,6.4-9.1,14.2-13.7,23.4-13.7s11.3,2.3,15.2,6.9,5.8,10.1,5.8,16.5-.3,5.5-.9,8.2h0c0,0,0,0,0,0ZM213.8,56.6c-2.6,2.3-5.1,5.9-7.5,10.8-2.4,5-3.7,9.9-3.7,14.9s.6,5.5,1.7,7.5,2.6,3,4.4,3c4.5,0,9.2-2.7,14.1-8.1s7.3-11.4,7.3-18.1-.8-6.8-2.4-9.3c-1.6-2.4-3.8-3.6-6.6-3.6s-5.1.9-7.3,2.8c0,0,0,0,0,0Z"/>
  <path class="st1" d="M261.9,114.1c-7.9,0-17.2-5.3-17.2-20.3s.6-21.8,1.9-30.1c.9-5.7,1.3-11.3,1.3-16.7s1.4-7.6,4.1-10.5c2.8-3,6.7-4.6,11.1-4.6s13,2.8,16.3,10c5-4.4,10.1-6.5,15.5-6.5s12.2,2.8,16.1,8c1.1,1.4,2,3.1,2.7,5.1,1.7-2.5,3.3-4.4,5-6,6.2-5.9,12.5-7.1,16.6-7.1,7.8,0,14.1,3.8,17.7,10.6,2.5,4.8,4.1,11.6,4.9,21.4.6,7.4,1.4,11.2,1.9,13.1,0,.3.2.6.2.7,4.8,2.6,7.6,7.2,7.6,12.6s-1.2,8.2-7.1,12.7c-3.9,2.9-8,4.4-12.4,4.4-7.3,0-13.5-3.7-17.4-10.5-1.6-2.8-2.9-6.5-3.8-11.4-2.7,5.3-5.2,9.2-7.5,11.9-5.4,6.3-11.3,7.6-15.3,7.6s-8.9-1.7-12.9-5.1c-3.5-3-5.5-7.7-6.4-16-3,5-5.4,9.7-7.2,13.9-1.6,7.9-7.7,12.8-16,12.8h0Z"/>
  <path class="st0" d="M268.1,98.4c-.4,3.8-2.5,5.6-6.3,5.6s-7.2-3.4-7.2-10.3c0-11.2.6-20.7,1.8-28.6,1-6.2,1.4-12.2,1.4-18.2s.5-2.6,1.4-3.6,2.2-1.5,3.8-1.5c5.5,0,8.2,3.3,8.2,10s-1,7.7-2.9,16.5c-1.2,5.3-1.8,9.1-1.8,11.4,10.4-22.9,19.9-34.4,28.2-34.4s6.1,1.3,8.2,4,3.1,8.7,3.2,18c0,8.5.5,12.7,1.3,12.7s2.9-4.1,6.8-12.3c4.3-9.1,8.1-15.1,11.1-18,3.1-2.9,6.3-4.4,9.7-4.4s7,1.7,8.8,5.2c1.8,3.5,3.1,9.4,3.8,17.7.5,6.6,1.3,11.5,2.2,14.9s2.5,5.6,4.8,6.7c1.8.9,2.7,2.2,2.7,3.9s-1,3.2-3.1,4.7-4.2,2.4-6.4,2.4c-3.7,0-6.6-1.8-8.7-5.5s-3.5-11-4.2-22.1c-.4-5.3-.8-8.9-1.3-10.6-.5-1.7-1.1-2.6-2-2.6s-2,1.3-3.5,3.9c-1.5,2.6-4.2,7.8-7.9,15.6-3.3,7-6.2,11.9-8.6,14.7s-5,4.2-7.7,4.2-4.2-.9-6.4-2.7c-2.1-1.8-3.3-8.4-3.5-19.9-.2-10.2-.8-15.3-2-15.3s-5.2,4.5-11.1,13.6c-5.8,9.1-10.2,17.2-13.2,24.3h0Z"/>
  <path class="st1" d="M383.1,114.3c-8.2,0-15.5-3.2-20.9-9.3-5.1-5.8-7.8-13-7.8-21.2s3.9-22.8,11.5-33.6c10.4-14.8,22.9-17.9,31.5-17.9s17.1,3.6,22.8,10.5c5.4,6.5,8.1,14.2,8.1,22.9s-.3,6.2-.9,9.2v.3l-.4,1.4c-3,10.4-8.7,19.3-17,26.4-8.7,7.4-17.8,11.2-27,11.2h0ZM395.2,64.6c-1,1-2.6,3.1-4.7,7.3-1.5,3-2.3,5.9-2.6,8.8.8-.7,1.8-1.6,2.7-2.7,3.2-3.5,4.7-7.1,4.7-11.3s0-1.6-.2-2.2h0s0,0,0,0Z"/>
  <path class="st0" d="M417.5,73.9c-2.5,8.5-7.1,15.7-13.9,21.6s-13.7,8.8-20.5,8.8-9.9-2-13.4-5.9-5.3-8.8-5.3-14.6c0-9.4,3.2-18.7,9.6-27.8,6.4-9.1,14.2-13.7,23.4-13.7s11.3,2.3,15.2,6.9c3.9,4.6,5.8,10.1,5.8,16.5s-.3,5.5-.9,8.2h0c0,0,0,0,0,0ZM389.1,56.6c-2.5,2.3-5,5.9-7.5,10.8-2.5,5-3.7,9.9-3.7,14.9s.6,5.5,1.7,7.5,2.6,3,4.4,3c4.5,0,9.2-2.7,14.1-8.1,4.9-5.4,7.3-11.4,7.3-18.1s-.8-6.8-2.4-9.3-3.8-3.6-6.6-3.6-5.1.9-7.3,2.8c0,0,0,0,0,0Z"/>
  <path class="st1" d="M437.9,114.7c-6.7,0-12.2-4.1-14.8-10.8-1.5-4.1-2.2-9.6-2.2-17.5s0-6.5.2-11.1c.1-4.5.6-10.1,1.3-16.5.2-1.5.3-2.6.4-3.5h0c.4-4.5.9-7.5,1.5-9.6,1-3.3,3.2-6.3,6.4-8.7,3.3-2.5,7.1-3.8,11.1-3.8,6.1,0,9.9,2.7,11.9,5,.5.5.9,1.1,1.3,1.6,5.6-4.7,11.6-7.1,17.6-7.1s11.5,1.9,15.7,5.5c4.6,4,7,9.1,7,14.8s-.9,7-2.8,9.9c-2.6,4.2-6.9,6.5-11.8,6.5s-6.5-.9-9.4-2.7c-1.3,1.4-3.2,3.6-5.7,6.8-5.4,7.1-8.6,15-9.7,23.9-.7,5.6-2.8,9.8-6,12.7-2.2,2-6.2,4.3-12.2,4.3h0Z"/>
  <path class="st0" d="M442.7,74.5l.9-1.8c4.4-8.9,9.2-16.1,14.3-21.6s10.1-8.3,14.9-8.3,6.8,1,9.1,3.1c2.4,2,3.5,4.5,3.5,7.3s-.4,3.3-1.2,4.5c-.8,1.3-1.9,1.9-3.3,1.9-2.3,0-4.3-.9-6.2-2.8-1.3-1.2-2.4-1.8-3.1-1.8-2.7,0-7.3,4.2-13.7,12.8-6.4,8.5-10.3,18.1-11.6,28.7-.4,3.1-1.3,5.2-2.7,6.4-1.4,1.2-3.3,1.8-5.6,1.8s-4.3-1.4-5.4-4.3-1.6-7.6-1.6-14,0-6.3.2-10.8c.1-4.3.6-9.5,1.3-15.7.2-1.6.3-2.9.4-3.8.3-3.6.7-6,1.1-7.4.4-1.3,1.4-2.6,2.9-3.8,1.5-1.2,3.2-1.8,5.1-1.8s3.5.6,4.5,1.7,1.5,2.4,1.5,3.7-.8,5.3-2.5,10.7c-.6,1.9-1.1,4.1-1.5,6.7l-1.4,8.4h0Z"/>
  <path class="st1" d="M494.5,114.5c-8.3,0-17.2-5.5-17.2-21s.9-14.9,2.8-24.5c.4-1.9.7-3.7,1-5.4h.3s-.3,0-.3,0c1.3-7.3,1.5-9.4,1.6-9.9,0-4.5,1.2-8.6,3.4-12,2.2-3.5,5.5-5.8,9.4-6.8-.3-.3-.5-.5-.8-.8-4.3-4.6-5.2-9.2-5.2-12.3,0-5.4,1.9-10,5.6-13.6,2.5-2.4,6.9-5.2,14.2-5.2s9.5,1.7,12.8,4.9c3.5,3.4,5.4,7.6,5.4,12.4s-1.2,9.6-7.1,14.5c-2.6,2.2-5.2,3.7-7.8,4.5,3.1,3,4.8,6.8,4.8,10.8s-.3,4.6-2.4,11.8l-.3,1.2c-1.8,6.4-2.9,11.6-3.3,15.4-.4,4.1-.6,7.4-.6,9.9s.1,2.9.9,6.9v.2s0,.2,0,.2c.2,1.2.3,2.3.3,3.3,0,5.7-4.3,9.6-5.7,10.8-3.4,3.1-7.5,4.7-11.8,4.7h0Z"/>
  <path class="st0" d="M490.8,65.3h0c1.2-6.6,1.8-10.4,1.8-11.3,0-2.7.6-5,1.8-6.8,1.2-1.8,2.8-2.7,5-2.7s4.4.6,5.8,1.8c1.4,1.2,2.1,2.5,2.1,3.9s-.7,4.5-2,9l-.3,1.2c-2,7-3.2,12.8-3.6,17.2-.4,4.4-.6,8.1-.6,10.8s.4,5.2,1.1,8.9c.1.7.2,1.2.2,1.6,0,.8-.8,2-2.4,3.4s-3.3,2.1-5.1,2.1c-4.8,0-7.2-3.7-7.2-10.9s.9-13.8,2.6-22.7c.4-2,.7-3.8,1-5.6h0ZM517.3,20.3c0,2.6-1.2,4.9-3.5,6.8-2.3,2-4.4,2.9-6.1,2.9s-4.1-.9-5.8-2.7c-1.7-1.8-2.5-3.6-2.5-5.5,0-2.6.8-4.8,2.5-6.4,1.7-1.6,4.1-2.4,7.2-2.4s4.4.7,5.9,2.2c1.5,1.4,2.3,3.1,2.3,5.1h0Z"/>
  <path class="st1" d="M66.1,249.9c-14.7,0-19.9-9.2-19.9-17.2s1.9-8.8,5.4-11.9c2.9-2.6,6.3-4.1,9.9-4.4-2-1.5-3.5-3-4.7-4.5-3.5-4.4-5.3-9.4-5.3-14.8s2.7-16.8,15.3-25.3c8.9-5.9,17.6-8.9,25.8-8.9,11.7,0,19.2,7.1,19.2,18.1s-2.1,8.6-5.8,11.6c-3.3,2.6-6.5,3.9-9.9,3.9s-4.1-.6-5.7-1.4c-.5.1-1,.2-1.5.4.3.1.6.3,1,.5,7.8,3.7,12.9,7.1,15.9,10.8,3.5,4.2,5.3,9.2,5.3,14.4s-2.8,15.6-16.4,22.3c-8.6,4.2-18.2,6.4-28.7,6.4h0Z"/>
  <path class="st0" d="M88.5,222.3c-.2-2-3.3-4.4-9.4-7.2-7.5-3.6-12.3-6.7-14.4-9.3s-3.1-5.4-3.1-8.5c0-6.5,3.6-12.1,10.9-16.9,7.2-4.8,14-7.2,20.3-7.2s9.2,2.7,9.2,8.1-.7,2.7-2.1,3.8-2.6,1.7-3.6,1.7-1.1-.2-2.1-.8c-1-.5-1.8-.8-2.3-.8-3.2,0-6.8,1.1-10.7,3.3-3.9,2.2-5.9,4.7-5.9,7.7s.7,2.8,2.1,4.1,4.2,3,8.5,5c6.3,3,10.5,5.7,12.5,8.1s3,5.1,3,8c0,5.3-3.6,9.8-10.8,13.3s-15.3,5.3-24.3,5.3-9.9-2.4-9.9-7.2.7-3.2,2.1-4.5,2.9-1.9,4.7-1.9,1.8.3,3.2.8c1.5.6,2.8.8,4.1.8,3.4,0,7-.6,10.8-1.6s6.2-2.4,7.4-4.1h0Z"/>
  <path class="st1" d="M114.8,248.2c-4.5,0-8.5-1.3-11.6-3.8-3.8-3-5.9-7.4-5.9-12.5s.1-3.1,1.7-11.1c3.7-19.2,6.7-40,9-61.8.8-7.5,2.6-12.7,5.6-16.3,3.6-4.4,7.8-6.7,12.3-6.7s8.9,1.9,12.3,5.4c2.2,2.4,4.9,6.5,4.9,13.1s-.6,10-1.6,15.9c-.2,1.1-.4,2.3-.7,3.6,3.5-1.6,7.1-2.4,10.8-2.4,5.8,0,11,2.2,14.9,6.2,3.8,4,6,10.7,7.3,22.6h0c.4,3.9.8,6.9,1.3,9.1.5,2.2,1.1,4.1,1.7,5.7.4,1.1,1,2.1,1.8,3h.1c2.5,3.3,3.7,6.8,3.7,10.3s-1.9,8.2-5.3,11.2c-3.1,2.7-6.9,4.1-10.9,4.1s-11.2-1.6-16.8-9.5c-3.5-4.9-5.6-11.3-6.3-19.1-5.5,7.6-9.5,13.7-11.9,18.2-2.1,4.7-3.6,7.5-5.1,9.3-2.8,3.5-6.8,5.4-11.2,5.4h0Z"/>
  <path class="st0" d="M122.5,211c6.1-11.4,11.3-19.1,15.7-23.2,4.4-4.1,8.8-6.2,13.3-6.2s5.7,1.1,7.8,3.2c2.1,2.1,3.6,7.7,4.5,16.7.4,4.3.9,7.7,1.5,10.4s1.3,4.9,2.1,7,1.9,3.9,3.3,5.7c1.1,1.4,1.6,2.8,1.6,4.1s-.6,2.5-1.9,3.6-2.7,1.6-4.4,1.6c-3.2,0-6.1-1.8-8.6-5.3-2.5-3.5-4-8.4-4.5-14.7-.6-7.6-1.2-12.5-1.9-14.6s-1.8-3.2-3.4-3.2-6.2,4.2-12.3,12.7c-6.1,8.4-10.5,15.2-13.2,20.3-1.7,3.8-3,6.3-3.9,7.4s-2,1.7-3.4,1.7c-2.2,0-4-.6-5.4-1.6-1.4-1.1-2.1-2.6-2.1-4.6s.5-4.1,1.5-9.2c3.7-19.6,6.8-40.5,9.1-62.6.6-5.3,1.7-9,3.4-11,1.7-2,3.2-3,4.6-3s3.6.8,5,2.2c1.4,1.5,2.1,3.6,2.1,6.2,0,4.1-.5,8.8-1.5,14.1-1,5.3-2.8,13.8-5.5,25.5-1.6,7-2.8,12.6-3.6,16.8h0Z"/>
  <path class="st1" d="M187.5,249.1c-8.3,0-17.2-5.5-17.2-20.9s.9-14.9,2.8-24.5c.4-1.9.7-3.7.9-5.4h.3s-.3,0-.3,0c1.3-7.3,1.6-9.4,1.6-9.9,0-4.5,1.2-8.6,3.4-11.9,2.2-3.5,5.6-5.8,9.4-6.8-.3-.3-.5-.5-.8-.8-4.3-4.6-5.2-9.2-5.2-12.3,0-5.4,1.9-10,5.6-13.6,2.5-2.4,6.9-5.2,14.2-5.2s9.4,1.7,12.8,4.9c3.5,3.4,5.4,7.6,5.4,12.4s-1.2,9.6-7.1,14.5c-2.6,2.2-5.2,3.7-7.8,4.5,3.1,3,4.8,6.8,4.8,10.8s-.3,4.6-2.4,11.8l-.3,1.2c-1.8,6.4-2.9,11.6-3.3,15.4-.4,4.1-.6,7.4-.6,9.9s.1,2.9.9,6.9v.2s0,.2,0,.2c.2,1.2.3,2.3.3,3.3,0,5.7-4.3,9.6-5.7,10.8-3.4,3.1-7.5,4.7-11.8,4.7h0Z"/>
  <path class="st0" d="M183.9,199.9h0c1.2-6.6,1.8-10.4,1.8-11.3,0-2.7.6-5,1.8-6.8,1.2-1.8,2.8-2.7,4.9-2.7s4.4.6,5.8,1.8c1.4,1.2,2.1,2.5,2.1,3.9s-.7,4.5-2,9l-.3,1.2c-2,7-3.2,12.8-3.6,17.2-.4,4.4-.6,8.1-.6,10.8s.4,5.2,1.1,8.9c.1.7.2,1.2.2,1.6,0,.8-.8,2-2.4,3.4-1.6,1.4-3.3,2.1-5.1,2.1-4.8,0-7.2-3.6-7.2-10.9s.9-13.8,2.6-22.7c.4-2,.7-3.8,1-5.6h0ZM210.3,154.9c0,2.6-1.2,4.9-3.5,6.8-2.3,1.9-4.4,2.9-6.1,2.9s-4.1-.9-5.8-2.7c-1.7-1.8-2.6-3.6-2.6-5.5,0-2.6.8-4.8,2.5-6.4,1.7-1.6,4.1-2.4,7.2-2.4s4.4.7,5.9,2.2c1.5,1.4,2.3,3.1,2.3,5.1h0Z"/>
  <path class="st1" d="M208,251.6c-4.2,0-7.9-1.1-11.1-3.4-4.1-2.8-6.5-7-6.7-11.7l-.2-4,2.7-3c1.9-2.2,4.5-4.9,7.5-8,8.1-8.3,14.4-14.7,19.2-19.7-17.2-1.5-19.2-11.9-19.2-16.6,0-7.9,5.2-15.9,16.9-15.9s3.3.3,4.9.9c1.5.6,3.3.9,5.2.9,5.1,0,11.5-.6,18.9-1.7,2.7-.5,4.9-.7,6.8-.7,4.3,0,8.1,1.2,11.2,3.4,4,2.9,6.1,7.2,6.1,12s-2.2,8-5.6,12.4c-.9,1.6-3.1,4.5-12.3,14.2,18.8.9,20.4,13.4,20.4,17.3s-2.3,10.7-6.5,15l-4.8,4.8-6.2-2.6c-1.6-.7-3.1-1.4-4.5-2.1-.9-.4-3-1.1-7.3-1.1s-4.8.2-12.9,1.6c-7.1,1.2-8.8,2.6-8.9,2.7-3.9,3.4-8.6,5.3-13.6,5.3h0Z"/>
  <path class="st0" d="M250.2,220.8c8.3,0,12.5,2.5,12.5,7.4s-1.2,5.5-3.6,7.9c-1.4-.6-2.6-1.2-3.7-1.8-3-1.5-6.9-2.3-12-2.3s-7.8.6-14.5,1.7c-6.7,1.1-11.4,2.8-13.9,5-2.1,1.9-4.4,2.8-7,2.8s-3.9-.5-5.5-1.6-2.3-2.4-2.4-3.9c1.8-2.1,4.2-4.6,7.1-7.6,23.6-24,35.8-36.8,36.5-38.3-1.5,0-3.3.1-5.6.4-6.4.9-11.1,1.3-14.3,1.3-9.1,0-13.6-2.3-13.6-6.8s2.3-5.9,6.9-5.9.8,0,1.3.3c2.7,1,5.6,1.5,8.8,1.5,5.7,0,12.5-.6,20.5-1.9,2.1-.4,3.9-.6,5.2-.6,2.1,0,3.9.5,5.3,1.5,1.4,1,2,2.3,2,3.9s-1.4,3.6-4,7.1h0c-1.3,2.4-11.2,13.1-29.8,32.1-.8.8-1.3,1.3-1.5,1.6,0,0,.4-.1.8-.2.5,0,1-.2,1.7-.4l2.1-.5c.8-.1,1.5-.3,2.1-.5,1.5-.4,2.4-.6,2.6-.6,6.8-1.4,11.9-2,15.5-2h.5Z"/>
  <path class="st1" d="M315.8,248.7c-3.1,0-10.2-1-14.7-9.6,0,0-.1,0-.1.1-6.4,5.2-13.3,7.9-20.4,7.9s-10.9-2.5-15.7-7.5c-4.7-4.9-7.1-11.8-7.1-20.6s1.2-12.4,3.6-22.1h0c2.2-8.5,2.5-12.4,2.5-14.1v-2.3l1-2c3.1-6.6,8.9-10.3,15.9-10.3s9.4,1.9,12.5,5.4c3.7,4.1,4.4,8.2,4.4,10.9,0,3.9-1.1,8.6-3.4,14.6-.3.8-.6,1.7-.9,2.8,1.4-2.5,2.5-4.9,3.1-7.4,2-7.6,3.8-12.3,5.7-15.3,3.1-4.8,8-7.4,13.8-7.4,9.4,0,15.7,6.6,15.7,16.4s-.4,3.8-1.4,6.9c-1.8,5.4-2.7,11.7-2.7,18.7s.6,8.2,1,9.1c3.5,2.5,5.4,6.1,5.4,10.2s-1,8.1-7.5,12.2c-3.5,2.2-7,3.3-10.6,3.3h0Z"/>
  <path class="st0" d="M306.9,216.2c-3.5,6.4-7.6,11.5-12.2,15.2s-9.3,5.6-14,5.6-5.6-1.5-8.5-4.4c-2.9-3-4.3-7.5-4.3-13.6s1.1-10.9,3.3-19.6c1.9-7.2,2.9-12.7,2.9-16.5,1.5-3.1,3.7-4.6,6.8-4.6s3.8.7,5.1,2.1,1.9,2.8,1.9,4.2c0,2.6-.9,6.3-2.7,11.1-1.1,2.9-2.2,6.9-3.4,12.1s-1.8,8.5-1.8,10c0,4.9,1,7.3,3,7.3,3.2,0,7.5-3.1,12.9-9.1,5.4-6.1,8.9-12.3,10.6-18.7,1.6-6.2,3.1-10.3,4.4-12.3s3.1-2.9,5.4-2.9c3.8,0,5.7,2.1,5.7,6.4s-.3,1.9-.9,3.7c-2.1,6.5-3.2,13.7-3.2,21.8s1.6,15.2,4.8,17c1.1.6,1.6,1.4,1.6,2.3,0,1.3-.9,2.6-2.8,3.7-1.9,1.2-3.6,1.8-5.3,1.8-2.9,0-5.1-2-6.6-6.1s-2.3-9.5-2.3-16.4h0Z"/>
  <path class="st1" d="M342.1,249.5c-6.1,0-10-2.6-12.2-4.8-3.9-3.9-4.7-8-4.7-10.7s.2-3.9,1.6-10.7c1.7-8.2,3.1-19.4,4.3-33.3v-.2c1.2-11.5,2.2-20.6,3.1-27.1,1.3-9.4,2.2-12.7,2.8-14.5,1.3-3.8,3.5-6.9,6.4-9.2,3.2-2.6,7-4,11-4s9.1,2.2,12,6.1c2.2,3,3.4,6.7,3.4,10.7s0,4.3-4.3,26.9c8.9-7.9,15.5-11.3,21.6-11.3,10.1,0,15,6.3,15.7,13h8.5l-10.7,10.8c-1.6,3-4.1,5.5-7.3,7.3h0c0,0-1.2.8-1.2.8-1.9,1-3.4,1.9-4.4,2.6-2.2,1.5-4.5,3.2-6.9,4.9-.3.3-.7.5-1,.8.1.1.2.2.3.4,4.9,5.1,7.6,7.5,9,8.6.8.6,1.2.8,1.4.8h2.4c3.5,0,6.8,1.3,9.2,3.7,1.7,1.7,3.7,4.7,3.7,9.5s-1.9,8.2-5.5,12.1c-3.8,4-9.5,6.1-16.9,6.1s-9.5-1.6-13.9-4.8c-1.8-1.3-4.7-3.7-10.1-9.8-.5,3.8-2.1,7.2-4.7,9.9-3.4,3.6-7.7,5.4-12.6,5.4h0Z"/>
  <path class="st0" d="M387.3,190.5h0-.1c-2.1,1.3-3.8,2.3-5.1,3.2-2.5,1.6-4.9,3.4-7.4,5.3-2.9,2.2-5,4-6.4,5.5-1.2,1.2-1.8,2.1-1.8,2.7s2.1,3.2,6.4,7.7c4.3,4.5,7.6,7.7,10.1,9.6s5,2.9,7.4,2.9h2.4c.9,0,1.6.2,2.1.7.5.5.8,1.3.8,2.4,0,1.5-.9,3.2-2.8,5.2s-5.1,3-9.6,3-5.4-1-8.1-2.9-6.9-6.4-12.6-13.2c-4.5-5.5-7-8.3-7.4-8.3s-1,.7-2.3,2-2.1,2.3-2.5,3h0c-.6,3.1-.9,7-.9,11.9s-.7,4.4-2.2,6c-1.4,1.5-3.2,2.3-5.3,2.3s-3.8-.6-5-1.8c-1.2-1.2-1.8-2.4-1.8-3.7s.5-4.2,1.4-8.6c1.8-8.6,3.2-20.1,4.4-34.4,1.2-11.4,2.2-20.3,3.1-26.7s1.7-10.6,2.4-12.6c.7-2,1.8-3.6,3.2-4.8,1.5-1.2,3-1.8,4.7-1.8s2.9.7,3.9,2c1,1.3,1.5,2.9,1.5,4.9s-1.5,11.6-4.6,27.8l-1.3,7.2h0c-1.6,10.6-2.4,16.6-2.5,18.3l16.8-15.2c8.6-8.3,14.9-12.4,18.9-12.4s5.8,1.6,5.8,4.6-1.9,6.7-5.6,8.4h0Z"/>
  <path class="st1" d="M450.1,248.7c-3.1,0-10.2-1-14.7-9.6,0,0-.1,0-.1.1-6.4,5.2-13.3,7.9-20.4,7.9s-10.9-2.5-15.7-7.5c-4.7-4.9-7.1-11.8-7.1-20.6s1.2-12.4,3.6-22.1h0c2.2-8.5,2.5-12.4,2.5-14.1v-2.3l1-2c3.1-6.6,8.9-10.3,15.9-10.3s9.4,1.9,12.5,5.4c3.7,4.1,4.4,8.2,4.4,10.9,0,3.9-1.1,8.6-3.4,14.6-.3.8-.6,1.7-.9,2.8,1.4-2.5,2.5-4.9,3.1-7.4,2-7.6,3.8-12.3,5.7-15.3,3.1-4.8,8-7.4,13.8-7.4,9.4,0,15.7,6.6,15.7,16.4s-.4,3.8-1.4,6.9c-1.8,5.4-2.7,11.7-2.7,18.7s.6,8.2,1,9.1c3.5,2.5,5.4,6.1,5.4,10.2s-1,8.1-7.5,12.2c-3.5,2.2-7,3.3-10.6,3.3h0Z"/>
  <path class="st0" d="M441.1,216.2c-3.5,6.4-7.6,11.5-12.2,15.2s-9.3,5.6-14,5.6-5.6-1.5-8.5-4.4c-2.9-3-4.3-7.5-4.3-13.6s1.1-10.9,3.3-19.6c1.9-7.2,2.9-12.7,2.9-16.5,1.5-3.1,3.7-4.6,6.8-4.6s3.8.7,5.1,2.1,1.9,2.8,1.9,4.2c0,2.6-.9,6.3-2.7,11.1-1.1,2.9-2.2,6.9-3.4,12.1s-1.8,8.5-1.8,10c0,4.9,1,7.3,3,7.3,3.2,0,7.5-3.1,12.9-9.1,5.4-6.1,8.9-12.3,10.6-18.7,1.6-6.2,3.1-10.3,4.4-12.3s3.1-2.9,5.4-2.9c3.8,0,5.7,2.1,5.7,6.4s-.3,1.9-.9,3.7c-2.1,6.5-3.2,13.7-3.2,21.8s1.6,15.2,4.8,17c1.1.6,1.6,1.4,1.6,2.3,0,1.3-.9,2.6-2.8,3.7-1.9,1.2-3.6,1.8-5.3,1.8-2.9,0-5.1-2-6.6-6.1s-2.3-9.5-2.3-16.4h0Z"/>
</svg>