<?xml version="1.0" encoding="UTF-8"?>
<svg id="_图层_1" xmlns="http://www.w3.org/2000/svg" version="1.1" viewBox="0 0 411 137">
  <!-- Generator: Adobe Illustrator 29.1.0, SVG Export Plug-In . SVG Version: 2.1.0 Build 142)  -->
  <defs>
    <style>
      .st0 {
        fill: #fff;
      }

      .st1 {
        fill: #f3a1b0;
        stroke: #ffe7c5;
        stroke-miterlimit: 10;
        stroke-width: 7px;
      }

      .st2 {
        isolation: isolate;
      }
    </style>
  </defs>
  <path class="st1" d="M68.5,3.5h274c35.9,0,65,29.1,65,65h0c0,35.9-29.1,65-65,65H68.5c-35.9,0-65-29.1-65-65h0C3.5,32.6,32.6,3.5,68.5,3.5Z"/>
  <g class="st2">
    <g class="st2">
      <path class="st0" d="M82,74.3c-.6,4.9-2.2,8.4-4.8,10.6s-6.6,3.3-11.8,3.3-10.5-1.5-13.3-4.5c-2.8-3-4.2-7.9-4.2-14.5s1.3-10.7,3.9-14.1,6.2-5.1,10.7-5.1,4.4.4,6.3,1.3c1.9.9,3.5,2.2,4.8,3.8v-4h7.3v12.4h-7c-.6-2.3-1.7-4.1-3.2-5.4-1.5-1.3-3.3-1.9-5.5-1.9s-4.9,1.1-6.3,3.2c-1.3,2.1-2,5.5-2,10s.7,8,2,10.1,3.4,3.1,6.3,3.1,4.1-.7,5.3-2.1c1.2-1.4,1.9-3.5,2-6.4h9.4ZM83.4,74.3l3.2,2.7c-.4,5.3-2.3,9.5-5.5,12.6-3.2,3.1-7.4,4.6-12.6,4.6s-5.1-.5-7.5-1.6c-2.3-1.1-4.7-2.8-7.1-5.1,1.7.9,3.6,1.6,5.5,2s4.1.7,6.4.7c5.5,0,9.7-1.3,12.7-4,2.9-2.7,4.6-6.6,4.9-11.9ZM63.4,80.8c-1.7-.5-2.9-1.7-3.7-3.4-.8-1.8-1.1-4.4-1.1-7.9s.5-6.9,1.6-8.7c1.1-1.8,2.8-2.7,5.2-2.7s3.4.6,4.7,1.7c1.3,1.1,2.2,2.7,2.7,4.7-1.2-.9-2.3-1.6-3.3-2-1-.4-2-.7-3-.7-1.8,0-3,.6-3.7,1.8-.7,1.2-1.1,3.3-1.1,6.4s.1,4,.4,5.7c.3,1.7.7,3.4,1.3,5.1ZM74,65.4h8.5v-14.2l3,4.1v14.1h-7.9l-3.6-4Z"/>
      <path class="st0" d="M92.9,57.1h-4.9v-5.9h12.7v29.8h5v5.9h-17.6v-5.9h4.9v-23.9ZM91.5,63l-3.5-4h3.5v4ZM88,88.8h19v-7.8l3,2.8v9h-17.7l-4.4-4ZM102.1,79.2v-28l3,3.8v24.2h-3Z"/>
      <path class="st0" d="M124,81.1h5v5.9h-17.6v-5.9h4.9v-15.9h-4.9v-5.9h12.7v21.8ZM114.8,71.1l-3.5-4.1h3.5v4.1ZM111.3,88.8h19v-7.8l3,2.8v9h-17.7l-4.4-4ZM116.4,57.5v-6.3h7.6v6.3h-7.6ZM125.4,57.5v-6.3l3,3.8v6.2l-3-3.7ZM125.4,79.2v-19.6l3,3.7v15.9h-3Z"/>
      <path class="st0" d="M152,77.2h9.9c-.6,3.6-2,6.4-4.3,8.2-2.3,1.8-5.4,2.8-9.4,2.8s-8-1.3-10.3-3.8-3.5-6.3-3.5-11.2,1.1-8.3,3.2-11c2.1-2.7,5-4,8.6-4s2.8.3,4,.9c1.2.6,2.3,1.5,3.3,2.6v-2.4h7.2v9.3h-8c-.2-1.9-.7-3.2-1.4-4.2s-1.7-1.4-3-1.4-2.8.8-3.5,2.4-1.1,4.2-1.1,7.8.4,6.2,1.1,7.8,1.8,2.4,3.4,2.4,2.2-.5,2.9-1.6c.7-1.1,1-2.6,1-4.5ZM163.4,77.2l2.7,3.4c-1,4.5-2.8,7.9-5.3,10.2s-5.7,3.4-9.5,3.4-4.8-.6-7-1.8-4.2-3-6.1-5.5c1.4,1.1,2.9,1.8,4.5,2.3s3.5.8,5.5.8c4.4,0,7.8-1.1,10.3-3.2,2.5-2.1,4.1-5.3,4.8-9.6ZM148.9,81.5c-.2,0-.3,0-.5,0-.2,0-.3,0-.5,0-1,0-1.8-.7-2.2-2s-.7-3.5-.7-6.4.2-5.3.7-6.5c.5-1.2,1.3-1.8,2.5-1.8s1.7.4,2.1,1.2c.5.8.7,2.1.8,3.8-.3-.2-.6-.4-.8-.5-.2-.1-.5-.2-.7-.2-.5,0-.8.3-1.1.8-.2.5-.4,1.4-.4,2.4s0,2.9.2,4.4.3,3,.5,4.6ZM152.7,70.4h9.4v-11.1l3,3.8v11.4h-8.9l-3.5-4.1Z"/>
      <path class="st0" d="M172.2,57.1h-4.9v-5.9h12.7v19.3l8.9-5.4h-3.2v-5.9h15.6v5.9h-3.4l-5.6,3.6,5,12.3h4v5.9h-10.3l-5.7-13.7-5.1,3.1v4.7h5v5.9h-17.6v-5.9h4.9v-23.9ZM170.8,63l-3.5-4h3.5v4ZM167.4,88.8h19v-6.8l1.4,1.6,1.6,3.5v5.7h-17.7l-4.4-4ZM184.4,66l-3,1.9v-16.7l3,3.8v11ZM186,79.2h-4.5v-1.8l3.1-1.8,1.4,3.6ZM191.3,88.8h11.3v-7.8l3,2.8v9h-10.4l-4-4ZM202.6,59.2l3,3.8v8h-6.7l-2.4,1.6,2.6,6.6h-1.1l-3.9-9.6,4-2.5h4.5v-7.8Z"/>
      <path class="st0" d="M225.2,87v-5.9h4.9v-23.9h-4.9v-5.9h12.7v11.8c1.2-1.6,2.6-2.9,4.2-3.7,1.6-.8,3.3-1.2,5.2-1.2s4.6.9,6,2.7c1.4,1.8,2.1,4.4,2.1,7.7v12.6h4.8v5.9h-12.6v-13.5c0-3.3-.3-5.5-.9-6.5s-1.5-1.6-2.9-1.6-3.2.8-4.2,2.3c-1.1,1.5-1.6,3.6-1.6,6.1v7.3h3.8v5.9h-16.5ZM228.6,63l-3.5-4h3.5v4ZM225.2,88.8h17.9v-7.8l3,2.8v9h-16.6l-4.4-4ZM239.2,59.3v-8l3,3.3v2.9c-.6.2-1.1.5-1.6.8s-1,.7-1.4,1.1ZM239.2,79.2v-5c0-2.1.4-3.8,1.1-5.1.7-1.2,1.7-1.9,3-1.9s1.6.3,2.1,1c.5.7.7,1.6.7,2.9v.7c-.4-.2-.7-.3-1-.4s-.6-.1-.8-.1c-.7,0-1.3.3-1.6,1-.3.7-.5,1.8-.5,3.4v3.5h-3ZM247.4,88.8h14v-7.8l3,3.1v8.7h-13.3l-3.8-4ZM256.6,79.2v-10.4c0-2.3-.2-4-.5-5.3-.3-1.2-.9-2.4-1.8-3.6,2.2,2.2,3.6,4.1,4.3,5.7.7,1.5,1,3.6,1,6.2v7.4h-3.1Z"/>
      <path class="st0" d="M275,75.5c0,.1,0,.3,0,.5s0,.4,0,.5c0,2.2.4,3.9,1.2,5.1.8,1.2,1.9,1.8,3.4,1.8s2.5-.5,3.2-1.4c.7-1,1.1-2.3,1.1-4.1v-.4h9.1c-.7,3.7-2.2,6.5-4.3,8.2-2.1,1.7-5.1,2.6-9.1,2.6s-8-1.2-10.3-3.7c-2.3-2.5-3.4-6.2-3.4-11.3s1.1-8.8,3.4-11.3c2.3-2.5,5.7-3.8,10.2-3.8s8,1.2,10.2,3.7c2.3,2.5,3.4,6.3,3.4,11.3s0,.5,0,.9c0,.3,0,.8,0,1.4h-18.1ZM297.2,80.9c-1,4.3-2.7,7.5-5.2,9.9-2.5,2.3-5.6,3.5-9.3,3.5s-5.1-.6-7.4-1.9c-2.3-1.2-4.2-3-5.9-5.4,1.4,1,2.9,1.8,4.5,2.3s3.5.8,5.5.8c4.5,0,7.9-1,10.3-3s3.9-5.1,4.6-9.5l2.9,3.4ZM274.9,70.8h9.1v-.9c0-2.3-.4-4.1-1.1-5.2-.7-1.2-1.9-1.7-3.4-1.7s-2.5.7-3.4,2c-.8,1.3-1.2,3.1-1.2,5.4v.4ZM276.6,68.9c0-1.3.4-2.3.9-3s1.2-1,2.1-1,1.6.3,2.1,1c.4.7.7,1.7.7,3.1h-5.8ZM276.6,77.4h5.9c0,1.4-.3,2.5-.8,3.2-.5.7-1.1,1-2.1,1s-1.7-.4-2.2-1.1c-.5-.7-.8-1.8-.8-3.1ZM290.7,60.4c2.4,2.3,4.2,4.6,5.4,7,1.1,2.4,1.7,5.1,1.7,8s0,.9,0,1.5c0,.6,0,1.3-.1,2l-3-3.6c0-.4,0-.8,0-1.1,0-.4,0-.9,0-1.5,0-2.4-.3-4.7-1-6.6-.6-2-1.6-3.9-3-5.7Z"/>
      <path class="st0" d="M299.8,87v-5.9h4.9v-15.9h-4.9v-5.9h12.7v3.3c1.1-1.5,2.4-2.6,3.7-3.4,1.3-.7,2.7-1.1,4.1-1.1s3.2.7,4.2,2.2c1,1.5,1.5,3.6,1.5,6.5v5.5h-7.7v-1.6c0-1.5-.2-2.6-.6-3.2-.4-.7-1-1-1.8-1-1.2,0-2.1.6-2.6,1.9-.5,1.3-.8,3.4-.8,6.3v6.4h5v5.9h-17.6ZM303.3,71.1l-3.5-4.1h3.5v4.1ZM299.8,88.8h18.9v-7.8l3,3v8.8h-17.6l-4.4-4ZM316.9,79.2h-3.1v-6.9c0-1.3.2-2.3.5-3.1.3-.7.8-1.1,1.4-1.1s.7.2.9.7c.2.5.3,1.6.3,3.3v7ZM327.3,74.1v-6.2c0-2.5-.1-4.3-.4-5.4-.3-1.1-.8-2.2-1.5-3.2l2.6,3.1c.9,1,1.5,2.1,1.8,3.3.4,1.1.5,2.9.5,5.4v7.2h-8.4l-3.7-4.1h9.1Z"/>
      <path class="st0" d="M341,75.5c0,.1,0,.3,0,.5s0,.4,0,.5c0,2.2.4,3.9,1.2,5.1.8,1.2,1.9,1.8,3.4,1.8s2.5-.5,3.2-1.4c.7-1,1.1-2.3,1.1-4.1v-.4h9.1c-.7,3.7-2.2,6.5-4.3,8.2-2.1,1.7-5.1,2.6-9.1,2.6s-8-1.2-10.3-3.7c-2.3-2.5-3.4-6.2-3.4-11.3s1.1-8.8,3.4-11.3c2.3-2.5,5.7-3.8,10.2-3.8s8,1.2,10.2,3.7c2.3,2.5,3.4,6.3,3.4,11.3s0,.5,0,.9c0,.3,0,.8,0,1.4h-18.1ZM363.3,80.9c-1,4.3-2.7,7.5-5.2,9.9-2.5,2.3-5.6,3.5-9.3,3.5s-5.1-.6-7.4-1.9c-2.3-1.2-4.2-3-5.9-5.4,1.4,1,2.9,1.8,4.5,2.3s3.5.8,5.5.8c4.5,0,7.9-1,10.3-3s3.9-5.1,4.6-9.5l2.9,3.4ZM341,70.8h9.1v-.9c0-2.3-.4-4.1-1.1-5.2-.7-1.2-1.9-1.7-3.4-1.7s-2.5.7-3.4,2c-.8,1.3-1.2,3.1-1.2,5.4v.4ZM342.6,68.9c0-1.3.4-2.3.9-3s1.2-1,2.1-1,1.6.3,2.1,1c.4.7.7,1.7.7,3.1h-5.8ZM342.6,77.4h5.9c0,1.4-.3,2.5-.8,3.2-.5.7-1.1,1-2.1,1s-1.7-.4-2.2-1.1c-.5-.7-.8-1.8-.8-3.1ZM356.7,60.4c2.4,2.3,4.2,4.6,5.4,7,1.1,2.4,1.7,5.1,1.7,8s0,.9,0,1.5c0,.6,0,1.3-.1,2l-3-3.6c0-.4,0-.8,0-1.1,0-.4,0-.9,0-1.5,0-2.4-.3-4.7-1-6.6-.6-2-1.6-3.9-3-5.7Z"/>
    </g>
  </g>
</svg>